<!DOCTYPE svg PUBLIC "-//W3C//DTD SVG 20010904//EN" "http://www.w3.org/TR/2001/REC-SVG-20010904/DTD/svg10.dtd">
<svg version="1.0" xmlns="http://www.w3.org/2000/svg" width="389px" height="89px" viewBox="0 0 3890 890" preserveAspectRatio="xMidYMid meet">
<g id="layer101" fill="#000000" stroke="none">
</g>
<g id="layer102" fill="#fefefe" stroke="none">
<path d="M1483 846 c-78 -35 -39 -127 47 -110 22 5 30 3 30 -8 0 -17 -56 -108 -67 -108 -5 0 -20 19 -35 43 -71 112 -149 156 -139 79 1 -6 23 -41 50 -75 26 -35 67 -104 90 -153 24 -49 48 -92 54 -96 7 -4 27 -8 45 -8 37 0 39 8 17 70 -17 47 -16 49 45 137 27 38 40 67 40 90 0 18 5 33 11 33 5 0 35 -23 65 -52 l55 -52 -3 -60 -3 -61 -35 -5 c-29 -4 -36 -9 -38 -33 -5 -37 13 -57 52 -57 32 0 32 -1 50 -77 34 -147 94 -250 163 -279 46 -20 78 -3 99 53 14 36 15 52 5 100 -14 72 -42 130 -82 171 l-31 32 55 0 c64 0 82 14 68 52 -13 33 -28 38 -122 38 -89 0 -83 -8 -79 100 2 76 20 117 58 131 41 16 85 2 136 -42 l45 -40 -5 -92 c-11 -161 25 -275 116 -371 69 -73 150 -109 245 -109 75 0 114 14 152 55 69 73 51 228 -26 228 -39 0 -46 -13 -43 -86 4 -85 -16 -109 -90 -108 -128 1 -221 114 -235 285 -11 133 38 228 133 257 67 20 190 15 262 -11 l64 -22 22 -66 c26 -81 63 -131 119 -163 61 -35 104 -40 124 -16 11 12 25 17 37 14 12 -3 30 1 40 9 19 14 19 17 3 100 -22 111 -22 173 -1 181 9 3 22 3 29 -1 36 -22 113 -129 156 -219 48 -102 60 -114 105 -114 32 0 39 21 20 59 -24 45 -20 59 34 139 32 47 50 84 50 103 0 35 6 36 43 6 21 -16 29 -33 32 -65 7 -73 25 -121 57 -158 53 -60 125 -84 182 -60 44 18 66 52 66 101 0 74 -54 132 -147 157 -24 7 -43 16 -43 21 0 19 36 36 78 37 36 0 49 -6 86 -40 50 -46 62 -49 68 -15 13 68 -73 138 -171 138 -58 0 -90 -11 -128 -45 -22 -20 -22 -20 -52 1 -17 12 -53 26 -80 30 -28 4 -57 14 -66 21 -24 20 -101 17 -125 -5 -48 -43 -8 -111 57 -99 29 5 33 4 33 -15 0 -23 -47 -101 -61 -101 -4 0 -24 26 -43 59 -41 67 -102 126 -152 147 -29 12 -39 12 -68 0 -19 -8 -37 -24 -41 -35 -8 -28 -17 -27 -54 8 -16 15 -44 31 -61 35 -34 6 -87 -11 -108 -37 -12 -14 -18 -14 -69 4 -179 61 -368 37 -473 -61 l-33 -31 -23 28 c-57 73 -153 112 -227 92 -40 -10 -99 -59 -109 -89 -4 -12 -13 -7 -39 19 -38 38 -86 61 -124 61 -14 0 -36 6 -48 14 -35 22 -79 27 -114 12z m1416 -117 c17 -18 34 -76 57 -196 6 -30 4 -33 -18 -33 -73 0 -156 159 -119 229 15 27 54 27 80 0z m778 -105 c44 -22 67 -56 59 -90 -6 -22 -11 -25 -44 -22 -33 3 -40 8 -59 48 -40 78 -27 97 44 64z m-1692 -325 c33 -74 33 -154 0 -154 -13 0 -26 12 -36 35 -20 41 -59 216 -51 225 12 11 61 -49 87 -106z"/>
<path d="M180 831 c-77 -16 -140 -68 -140 -117 0 -17 7 -37 15 -44 13 -10 21 -7 48 22 42 46 67 58 120 58 76 0 117 -53 133 -169 6 -50 6 -51 -20 -51 -40 0 -66 -18 -66 -44 0 -31 17 -44 65 -48 l40 -3 11 -120 c7 -66 10 -122 8 -124 -8 -9 -127 18 -150 34 -31 20 -40 58 -23 107 15 45 5 58 -43 58 -48 0 -78 -76 -58 -148 23 -86 124 -134 324 -152 152 -14 395 1 413 27 17 22 16 35 -1 58 -13 18 -26 19 -179 16 l-164 -3 -7 74 c-4 40 -9 92 -12 116 l-6 42 87 0 c96 0 125 10 125 43 0 51 -20 62 -129 65 l-101 4 0 31 c0 40 -22 122 -42 162 -42 80 -149 126 -248 106z"/>
<path d="M784 826 c-18 -8 -36 -27 -45 -47 -32 -77 1 -315 49 -347 18 -11 28 -12 47 -4 27 12 27 25 -1 154 -20 97 -19 145 6 158 23 12 44 4 79 -33 17 -19 25 -43 31 -94 15 -131 35 -177 82 -189 45 -10 47 12 11 179 -9 43 10 32 34 -20 46 -101 145 -179 193 -153 21 11 24 23 21 80 -2 28 2 37 21 45 67 29 -11 157 -84 137 -27 -7 -40 -37 -36 -85 2 -36 0 -42 -17 -42 -29 0 -78 79 -106 170 -32 105 -78 133 -112 69 l-13 -24 -34 24 c-47 31 -88 38 -126 22z"/>
<path d="M800 347 c-34 -17 -40 -75 -10 -102 24 -22 81 -25 104 -6 21 18 20 74 -1 94 -26 23 -65 29 -93 14z"/>
</g>


</svg>